<?xml version="1.0" encoding="UTF-8" standalone="no"?>
<!-- Created with Inkscape (http://www.inkscape.org/) -->

<svg
   id="svg2"
   version="1.1"
   inkscape:version="1.2 (dc2aedaf03, 2022-05-15)"
   width="9161.8008"
   height="4180.9883"
   viewBox="0 0 9161.8008 4180.9883"
   sodipodi:docname="logo_blacknwhite.svg"
   inkscape:export-filename="/home/lukas/Dokumente/Blender/Logo/Logo _transparent_background.svg.png"
   inkscape:export-xdpi="33.5326"
   inkscape:export-ydpi="33.5326"
   xmlns:inkscape="http://www.inkscape.org/namespaces/inkscape"
   xmlns:sodipodi="http://sodipodi.sourceforge.net/DTD/sodipodi-0.dtd"
   xmlns="http://www.w3.org/2000/svg"
   xmlns:svg="http://www.w3.org/2000/svg"
   xmlns:rdf="http://www.w3.org/1999/02/22-rdf-syntax-ns#"
   xmlns:cc="http://creativecommons.org/ns#"
   xmlns:dc="http://purl.org/dc/elements/1.1/">
  <metadata
     id="metadata8">
    <rdf:RDF>
      <cc:Work
         rdf:about="">
        <dc:format>image/svg+xml</dc:format>
        <dc:type
           rdf:resource="http://purl.org/dc/dcmitype/StillImage" />
      </cc:Work>
    </rdf:RDF>
  </metadata>
  <defs
     id="defs6" />
  <sodipodi:namedview
     pagecolor="#ffffff"
     bordercolor="#666666"
     borderopacity="1"
     objecttolerance="10"
     gridtolerance="10"
     guidetolerance="10"
     inkscape:pageopacity="0"
     inkscape:pageshadow="2"
     inkscape:window-width="1920"
     inkscape:window-height="1024"
     id="namedview4"
     showgrid="false"
     fit-margin-bottom="0"
     fit-margin-top="0"
     fit-margin-left="0"
     fit-margin-right="0"
     inkscape:zoom="0.125"
     inkscape:cx="4200"
     inkscape:cy="2336"
     inkscape:window-x="1536"
     inkscape:window-y="26"
     inkscape:window-maximized="1"
     inkscape:current-layer="layer2"
     inkscape:pagecheckerboard="0"
     showguides="true"
     inkscape:guide-bbox="true"
     inkscape:snap-intersection-paths="true"
     inkscape:object-nodes="false"
     inkscape:snap-smooth-nodes="true"
     inkscape:snap-center="false"
     inkscape:showpageshadow="0"
     inkscape:deskcolor="#d1d1d1">
    <inkscape:grid
       type="xygrid"
       id="grid9" />
    <sodipodi:guide
       position="4585.0986,4000.5473"
       orientation="1,0"
       id="guide7128"
       inkscape:locked="false" />
    <sodipodi:guide
       position="7551.7813,3590.3486"
       orientation="0,-1"
       id="guide14945"
       inkscape:locked="false" />
  </sodipodi:namedview>
  <g
     inkscape:groupmode="layer"
     id="layer3"
     inkscape:label="Layer 3"
     style="display:inline" />
  <g
     inkscape:groupmode="layer"
     id="layer2"
     inkscape:label="Layer 2"
     style="display:inline">
    <path
       inkscape:connector-curvature="0"
       id="path3344"
       d="M 2682.5288,1992.3774 C 1713.4861,1662.0252 775.69844,1195.9966 3.3676,515.4238 609.8298,250.09441 1244.7561,21.855816 1914.4316,7.5269558 2839.186,-38.940974 3787.2954,157.21261 4585.8961,635.1166 5605.6251,21.51956 6868.8268,-131.96237 8024.4518,111.20549 8420.105,194.02138 8787.0105,369.21438 9161.524,515.3982 8389.3401,1196.1115 7451.2665,1661.84 6482.374,1992.4018 6116.2727,2902.8568 5483.6956,3747.1487 4582.1325,4180.5042 3601.8044,3735.1058 2981.083,2779.9762 2682.5288,1992.3774 Z m 3255.9845,145.5305 c -992.3967,343.2305 -1909.5482,261.8704 -2681.6651,38.8133 303.4933,567.7544 750.1588,1158.0474 1328.249,1455.7292 565.1246,-343.1781 1087.1081,-999.3767 1353.4161,-1494.5425 z m 245.8228,-578.3771 C 6331.9603,1193.2961 6342.4141,792.02131 6360.8928,403.3394 5734.5037,505.13913 5116.7651,698.17029 4584.0837,1048.887 4049.8788,699.64796 3431.3602,504.48213 2804.0243,403.3394 c 19.8088,389.47052 26.4909,794.9481 180.6609,1159.5655 1597.4473,452.4345 1597.4473,455.6475 3199.6509,-3.3741 z M 2502.4586,1382.67 C 2449.0931,1042.0836 2438.0509,696.92121 2412.2066,353.646 1883.7005,308.29443 1263.3017,469.73289 745.29942,587.72545 1313.7973,1009.1164 1874.9449,1240.5413 2502.4586,1382.67 Z M 8445.2542,588.38235 C 7927.2583,470.23019 7281.228,308.35506 6752.7106,353.646 6729.348,697.32456 6710.956,1046.2969 6665.2711,1385.2703 7303.0644,1214.425 7978.173,919.78201 8445.2542,588.38235 Z"
       style="fill:#121212;fill-opacity:1"
       inkscape:export-xdpi="73.379997"
       inkscape:export-ydpi="73.379997"
       sodipodi:nodetypes="ccccccccccccccccccccccccccc" />
  </g>
  <g
     inkscape:groupmode="layer"
     id="layer1"
     inkscape:label="Layer 1"
     style="display:inline" />
</svg>
