<?xml version="1.0" encoding="UTF-8" standalone="no"?>
<svg
   version="1.1"
   width="133.99519mm"
   height="91.615128mm"
   viewBox="0 0 133.9952 91.615127"
   id="svg2223"
   sodipodi:docname="PandaWings-Edge_Cuts_half_mounting.svg"
   inkscape:version="1.1.2 (0a00cf5339, 2022-02-04)"
   xmlns:inkscape="http://www.inkscape.org/namespaces/inkscape"
   xmlns:sodipodi="http://sodipodi.sourceforge.net/DTD/sodipodi-0.dtd"
   xmlns="http://www.w3.org/2000/svg"
   xmlns:svg="http://www.w3.org/2000/svg"
   xmlns:rdf="http://www.w3.org/1999/02/22-rdf-syntax-ns#"
   xmlns:cc="http://creativecommons.org/ns#"
   xmlns:dc="http://purl.org/dc/elements/1.1/">
  <defs
     id="defs2223" />
  <sodipodi:namedview
     id="namedview2223"
     pagecolor="#d1d1d1"
     bordercolor="#eeeeee"
     borderopacity="1"
     inkscape:showpageshadow="0"
     inkscape:pageopacity="0"
     inkscape:pagecheckerboard="0"
     inkscape:deskcolor="#d1d1d1"
     inkscape:document-units="mm"
     inkscape:zoom="2.0000001"
     inkscape:cx="204.49999"
     inkscape:cy="173.49999"
     inkscape:window-width="2560"
     inkscape:window-height="1532"
     inkscape:window-x="0"
     inkscape:window-y="0"
     inkscape:window-maximized="1"
     inkscape:current-layer="svg2223"
     showguides="true"
     inkscape:pageshadow="0"
     showgrid="false"
     fit-margin-top="0"
     fit-margin-left="0"
     fit-margin-right="0"
     fit-margin-bottom="0"
     inkscape:guide-bbox="true"
     inkscape:snap-page="false" />
  <title
     id="title1">SVG Image created as PandaWings-Edge_Cuts.svg date 2024/03/02 11:22:09 </title>
  <desc
     id="desc1">Image generated by PCBNEW </desc>
  <metadata
     id="metadata2223">
    <rdf:RDF>
      <cc:Work
         rdf:about="">
        <dc:title>SVG Image created as PandaWings-Edge_Cuts.svg date 2024/03/02 11:22:09 </dc:title>
      </cc:Work>
    </rdf:RDF>
  </metadata>
  <circle
     cx="25.391294"
     cy="70.135559"
     r="2.3499999"
     id="circle79230"
     style="fill:#000000;fill-opacity:0.4;stroke:#000000;stroke-width:0;stroke-linecap:round;stroke-linejoin:round;stroke-opacity:1" />
  <circle
     cx="71.957314"
     cy="62.521065"
     r="2.3499999"
     id="circle79240"
     style="fill:#000000;fill-opacity:0.4;stroke:#000000;stroke-width:0;stroke-linecap:round;stroke-linejoin:round;stroke-opacity:1" />
  <circle
     cx="115.1013"
     cy="26.256065"
     r="2.3499999"
     id="circle79250"
     style="fill:#000000;fill-opacity:0.4;stroke:#000000;stroke-width:0;stroke-linecap:round;stroke-linejoin:round;stroke-opacity:1" />
  <circle
     cx="39.146309"
     cy="22.766068"
     id="circle79260"
     style="fill:#000000;fill-opacity:0.4;stroke:#000000;stroke-width:0;stroke-linecap:round;stroke-linejoin:round;stroke-opacity:1"
     r="2.3499999" />
  <circle
     cx="115.1013"
     cy="45.256065"
     r="2.3499999"
     id="circle80812"
     style="fill:#000000;fill-opacity:0.4;stroke:#000000;stroke-width:0;stroke-linecap:round;stroke-linejoin:round;stroke-opacity:1" />
  <g
     id="g18383"
     style="display:inline;stroke:#000000"
     transform="translate(-0.64501928,-1.3755866)">
    <path
       id="path1864"
       style="fill:#000000;fill-opacity:0;stroke:#000000;stroke-width:0.2;stroke-linecap:round;stroke-linejoin:round;stroke-opacity:1"
       d="m 116.48242,9.7658912 -0.005,7.5172998 M 97.771619,8.4951911 c -0.701402,0 -1.27,-0.5685984 -1.27,-1.27 M 116.47742,56.653191 c 0,-0.701402 0.5686,-1.27 1.27,-1.27 M 96.501619,7.2251911 l -0.009,-2.2121 m -1.27,-1.27 c 0.701402,0 1.27,0.5685984 1.27,1.27 m 36.737401,50.3735999 -10.1231,-0.0024 M 40.502519,4.9754911 c 0,0.7014016 -0.568598,1.27 -1.27,1.27 m -17.7032,0.9809 c 0.131738,-0.579149 0.646657,-0.9900958 1.2406,-0.9901 m -1.2406,0.9901 c 0,0.7014016 -0.568598,1.27 -1.27,1.27 M 133.22802,18.541991 c 0.7014,0 1.27,0.568598 1.27,1.27 m -18.0205,43.6609 c 0,0.701402 -0.5686,1.27 -1.27,1.27 m 2.54,-46.1897 15.4805,-0.0112 M 40.502519,4.9754911 c 0.01917,-0.6846224 0.579709,-1.2296517 1.2646,-1.2296 M 0.74501928,9.7594912 C 0.74501922,9.0580895 1.3136176,8.4894911 2.0150193,8.4894911 M 117.74752,18.553191 c -0.7014,0 -1.27,-0.568598 -1.27,-1.27 m 18.0225,36.8335 c 0,0.701402 -0.5686,1.27 -1.27,1.27 M 115.21242,8.4958911 c 0.7014,0 1.27,0.5685984 1.27,1.2700001 m -0.005,53.7069998 v -6.8197 m 1.27,-1.27 5.3594,0.0011 m -92.684901,29.0089 c 0.2134,-0.0644 0.4327,-0.1078 0.6546,-0.1295 m 47.567,-19.3739 c 0.0937,-0.0938 0.2209,-0.1465 0.3536,-0.1465 m -10.8966,14.6037 c -0.0938,0.0937 -0.221,0.1463 -0.3536,0.1463 M 0.97421928,69.340891 c -0.1527,-0.2651 -0.2312,-0.5665 -0.2271,-0.8725 M 22.769819,6.2385911 l 16.4626,0.0069 M 0.74761928,9.7241022 V 68.516891 m 84.38229972,-3.7726 30.077501,-0.0014 m 19.2905,-44.9309 9e-4,34.3012 M 97.771619,8.4951911 l 17.440701,7e-4 m -73.445301,-4.755 5.3529,0.001 m -16.698,80.6512999 -14.2941,8.2611 M 2.0149193,8.4894911 l 18.2442997,0.0069 m -6.0595,83.7783999 -13.22599972,-22.9324 m 13.22909972,22.937 c -10e-4,-0.002 -0.002,-0.003 -0.003,-0.005 m 1.928,0.3799 c -0.6351,0.4281 -1.4969,0.2602 -1.925,-0.3749 m 53.5441,-12.7861 -36.6704,4.7704 m 47.567,-19.3739 -10.543,14.4572 m -9.7824,-75.5993999 -11.1982,-0.0057 m 48.1026,0.0012 -16.4541,-0.0037 m 16.465,-0.00114 -5.3631,0.0031 m -50.6415,2.497 c 0.701402,0 1.27,-0.5685984 1.27,-1.27 m 20.2495,-3.4882 c -0.64084,-0.0027 -1.24291,0.338444 -1.2493,0.993801 m 19.4985,62.2671989 10.9728,-8e-4 M 77.474519,2.4719501 c -0.0076,-0.6035774 -0.594469,-1.0055916 -1.2484,-0.996201 m -55.9944,7.0111005 c 0.693323,2.97e-5 1.25718,-0.5586064 1.2636,-1.2519 m 1.2875,-0.9958005 c -0.611709,-0.017621 -1.150662,0.3993644 -1.2872,0.9959005 m 111.732101,48.1450994 -5.3574,-0.0071 M 41.763319,3.7428491 c -0.683264,4.16e-5 -1.24306,0.5425721 -1.2645,1.2255 m 56.0046,0.0399 c 1e-6,-0.701402 -0.568598,-1.270001 -1.27,-1.270001 M 133.22772,55.380148 c 0.7014,0 1.27,-0.568598 1.27,-1.27 M 58.229019,3.7439491 c 0.7247,0.03882 1.27817,-0.554987 1.27,-1.27 m 17.9755,-0.002 c 10e-7,0.7014012 0.568599,1.269998 1.27,1.269998 m -20.5155,0.002 -6.2687,-0.0026 M 2.0178193,8.4910486 C 1.3163788,8.4909934 0.7477195,9.0596077 0.74771928,9.7610482 M 134.54022,19.810249 c 0,-0.701402 -0.5686,-1.27 -1.27,-1.27 m -54.626201,46.3474 c 0.0937,-0.0938 0.2209,-0.1465 0.3536,-0.1465 m -0.3536,0.1465 -10.543,14.4572 m 0,0 c -0.0938,0.0937 -0.221,0.1463 -0.3536,0.1463 m 0,0 -36.6704,4.7704 m -14.9487,8.3906 c -0.6351,0.4281 -1.4969,0.2602 -1.925,-0.3749 m 0,0 c -0.001,-10e-4 -0.002,-0.003 -0.003,-0.005 m -10e-5,4e-4 -13.22599972,-22.9324 M 134.49752,8.9912496 v 0 m -132.4796007,-0.5002 18.2138997,0.0022 m 58.5128,-4.7512995 11.1258,-6e-4 m 6.6331,1.2669 -0.003,2.2167995 m -66.0781,77.1659994 -14.2941,8.2611 m 25.6351,-88.9092999 10.197,-0.0015 m 8.788,-2.2612 15.4778,-0.0044 m 58.314001,18.3344999 -0.0451,34.2971 m -44.524701,10.633 24.249101,1e-4 M 0.74811928,9.7355892 V 68.507162 M 22.782919,6.2391501 h 16.51 M 0.97471928,69.338749 c -0.1527,-0.2651 -0.2312,-0.5665 -0.2271,-0.8725 m 29.67479972,15.9248 c 0.2134,-0.0644 0.4327,-0.1078 0.6546,-0.1295"
       sodipodi:nodetypes="cccccccccccccccccccccccccccccccccccccccccccccccccccccccccccccccccccccccccccccccccccccccccccccccccccccccccccccccccccccccccccccccccccccccccccccccccccc" />
  </g>
</svg>
