<?xml version="1.0" encoding="UTF-8" standalone="no"?>
<!-- Created with Inkscape (http://www.inkscape.org/) -->

<svg
   width="297mm"
   height="210mm"
   viewBox="0 0 297 210"
   version="1.1"
   id="svg18743"
   inkscape:version="1.3.2 (091e20e, 2023-11-25, custom)"
   sodipodi:docname="PandaWings-Edge_Cuts_half_square_outer.svg"
   xmlns:inkscape="http://www.inkscape.org/namespaces/inkscape"
   xmlns:sodipodi="http://sodipodi.sourceforge.net/DTD/sodipodi-0.dtd"
   xmlns="http://www.w3.org/2000/svg"
   xmlns:svg="http://www.w3.org/2000/svg">
  <sodipodi:namedview
     id="namedview18745"
     pagecolor="#afafaf"
     bordercolor="#eeeeee"
     borderopacity="1"
     inkscape:pageshadow="0"
     inkscape:pageopacity="0"
     inkscape:pagecheckerboard="0"
     inkscape:document-units="mm"
     showgrid="false"
     fit-margin-top="0"
     fit-margin-left="0"
     fit-margin-right="0"
     fit-margin-bottom="0"
     inkscape:zoom="3.6233469"
     inkscape:cx="576.40079"
     inkscape:cy="324.6998"
     inkscape:window-width="3840"
     inkscape:window-height="2066"
     inkscape:window-x="-11"
     inkscape:window-y="-11"
     inkscape:window-maximized="1"
     inkscape:current-layer="layer1"
     inkscape:showpageshadow="2"
     inkscape:deskcolor="#d1d1d1" />
  <defs
     id="defs18740" />
  <g
     inkscape:label="Ebene 1"
     inkscape:groupmode="layer"
     id="layer1"
     transform="translate(134.9164,-97.4596)">
    <g
       id="g18632"
       transform="matrix(-1,0,0,1,-80.086787,129.84899)">
      <path
         style="fill:none;stroke:#000000;stroke-width:0.264583px;stroke-linecap:butt;stroke-linejoin:miter;stroke-opacity:1"
         d="m -140.68851,69.32263 14.77071,25.541615 16.48693,-9.564761 37.615945,-5.051314 10.726452,-14.783591 h 38.4 v -8.986291 l 17.7999998,-3.02e-4 V 16.964579 H -22.588473 V 7.1645793 h -20 v -4.7 h -18.999558 l -4.42e-4,-2.3 h -20.5 v 2.3 h -19.099997 v 2.5 h -19 v 2.3 h -20.5 z"
         id="path7575-3"
         sodipodi:nodetypes="ccccccccccccccccccccccc" />
    </g>
    <path
       style="fill:#000000;stroke:#000000;stroke-width:0.264999;stroke-dasharray:none"
       d="m -77.1164,147.33642 c 1.510156,-11.19568 33.143874,-15.47487 44.859868,-16.95289 11.715994,-1.47803 32.08022082,-1.83423 41.6190223,-0.76673 9.5388017,1.06749 28.1355187,3.89456 29.8020647,4.30164 1.666546,0.40708 1.270403,1.19712 2.232611,1.208 0,0 10.859965,0.61596 20.937345,0.69106 0.146414,3.32432 0.652278,60.93754 0,63.65612 -0.652278,2.71858 -13.741148,26.08181 -16.381049,26.34779 C 42.371591,226.1823 -76.677849,197.38688 -77.1164,185.26735 Z"
       id="path1"
       sodipodi:nodetypes="czzzcczscc" />
  </g>
</svg>
