<?xml version="1.0" encoding="UTF-8" standalone="no"?>
<svg
   version="1.1"
   width="134.05251mm"
   height="91.615128mm"
   viewBox="0 0 134.05251 91.615127"
   id="svg2223"
   sodipodi:docname="PandaWings-Edge_Cuts_half_switch_plate.svg"
   inkscape:version="1.1.2 (0a00cf5339, 2022-02-04)"
   xmlns:inkscape="http://www.inkscape.org/namespaces/inkscape"
   xmlns:sodipodi="http://sodipodi.sourceforge.net/DTD/sodipodi-0.dtd"
   xmlns="http://www.w3.org/2000/svg"
   xmlns:svg="http://www.w3.org/2000/svg"
   xmlns:rdf="http://www.w3.org/1999/02/22-rdf-syntax-ns#"
   xmlns:cc="http://creativecommons.org/ns#"
   xmlns:dc="http://purl.org/dc/elements/1.1/">
  <defs
     id="defs2223" />
  <sodipodi:namedview
     id="namedview2223"
     pagecolor="#d1d1d1"
     bordercolor="#eeeeee"
     borderopacity="1"
     inkscape:showpageshadow="0"
     inkscape:pageopacity="0"
     inkscape:pagecheckerboard="0"
     inkscape:deskcolor="#d1d1d1"
     inkscape:document-units="mm"
     inkscape:zoom="5.6568543"
     inkscape:cx="30.052038"
     inkscape:cy="248.37126"
     inkscape:window-width="2560"
     inkscape:window-height="1532"
     inkscape:window-x="0"
     inkscape:window-y="0"
     inkscape:window-maximized="1"
     inkscape:current-layer="path1864"
     showguides="true"
     inkscape:pageshadow="0"
     showgrid="false"
     fit-margin-top="0"
     fit-margin-left="0"
     fit-margin-right="0"
     fit-margin-bottom="0"
     inkscape:guide-bbox="true"
     inkscape:snap-page="false" />
  <title
     id="title1">SVG Image created as PandaWings-Edge_Cuts.svg date 2024/03/02 11:22:09 </title>
  <desc
     id="desc1">Image generated by PCBNEW </desc>
  <metadata
     id="metadata2223">
    <rdf:RDF>
      <cc:Work
         rdf:about="">
        <dc:title>SVG Image created as PandaWings-Edge_Cuts.svg date 2024/03/02 11:22:09 </dc:title>
      </cc:Work>
    </rdf:RDF>
  </metadata>
  <g
     id="g46821"
     style="display:inline;fill:#000000;stroke:#000000">
    <g
       id="g438"
       style="fill:#000000">
      <g
         id="path1864">
        <path
           style="color:#000000;stroke:none;stroke-linecap:round;stroke-linejoin:round;-inkscape-stroke:none"
           d="M 75.580078,0 60.103516,0.00390625 c -0.731983,0.02077051 -1.205008,0.41921217 -1.349607,1.09375025 -0.03491,0.6576862 -0.46435,1.2048478 -1.074219,1.1738282 -6.76e-4,6.407e-4 -0.0013,0.00129 -0.002,0.00195 -0.0013,-6.783e-4 -0.0026,-0.00133 -0.0039,-0.00195 L 41.123009,2.2695347 C 40.411764,2.269481 39.847233,2.8292464 39.787071,3.5293003 39.77776,4.479421 39.092088,4.7157312 38.58785,4.7695321 l -16.445313,-0.00586 c -0.0051,-0.00172 -0.01032,-0.00303 -0.01563,-0.00391 -0.712824,0.011179 -1.348622,0.3900437 -1.339844,1.0898438 2.6e-5,9.405e-4 -0.002,0.00101 -0.002,0.00195 v 0.00195 l 0.05869,51.9140721 c -19.6524098,11.703551 0,0 -19.6524098,11.703551 -0.043304,0.02631 -0.1507051,0.118852 -0.036139,0.284807 13.293009,22.990351 0,0 12.378043,21.242268 0.462141,0.616361 1.30834,0.78321 1.962891,0.371094 0.0125,0.001 0.02509,-2.83e-4 0.03711,-0.0039 l 0.0059,-0.0039 14.267578,-8.246094 37.55664,-4.904297 c 0.02646,-0.0036 0.05038,-0.01769 0.06641,-0.03906 6.67e-4,7e-6 0.0013,7e-6 0.002,0 l 10.716796,-14.6875 36.414061,-0.01758 c 0.0264,-1.11e-4 0.0516,-0.01064 0.0703,-0.0293 0.69048,-0.04083 1.2287,-0.579056 1.26953,-1.269531 0.0187,-0.01865 0.0292,-0.04393 0.0293,-0.07031 v -6.820312 c 0,-0.647357 0.52257,-1.169922 1.16992,-1.169922 l 15.48438,0.0039 c 0.0264,-1.11e-4 0.0516,-0.01064 0.0703,-0.0293 0.72039,-0.04167 1.33398,-0.610217 1.33398,-1.341797 l 0.006,-34.304687 c -9.7e-4,-0.02315 -0.01,-0.04524 -0.0254,-0.0625 -0.0378,-0.721911 -0.61455,-1.308594 -1.3457,-1.308594 l -15.52344,0.01367 c -0.64735,0 -1.16992,-0.522565 -1.16992,-1.169922 l 0.006,-7.517578 c -9.7e-4,-0.023147 -0.01,-0.045238 -0.0254,-0.0625 -0.0366,-0.6985283 -0.58444,-1.2475551 -1.2832,-1.2832031 -0.0159,-0.013541 -0.0357,-0.021738 -0.0566,-0.023437 -0.002,-7.129e-4 -0.004,-0.00136 -0.006,-0.00195 H 97.126953 c -0.647357,0 -1.169922,-0.5225649 -1.169922,-1.1699218 l -0.0098,-2.2128906 c -1.08e-4,-0.026385 -0.01064,-0.051658 -0.0293,-0.070312 C 95.877099,2.8759967 95.338847,2.3377452 94.648437,2.296875 94.629783,2.2782164 94.604511,2.267686 94.578127,2.267578 L 78.123049,2.263668 C 77.395131,2.1158475 76.941737,1.5579268 76.890629,1.0214802 76.77367,0.33698255 76.197189,0.00337757 75.587891,0.00195313 75.585015,0.00197962 75.582956,-4.1332845e-5 75.580078,0 Z"
           id="path15985"
           sodipodi:nodetypes="ccccccccccccscccccccccccccccccsccccccccccccccsccccccccc" />
      </g>
    </g>
  </g>
</svg>
